<svg width="188" height="52" viewBox="0 0 188 52" fill="none" xmlns="http://www.w3.org/2000/svg" role="img" aria-labelledby="title desc">
  <title id="title">Бронн Барбершоп</title>
  <desc id="desc">Логотип вымышленного барбершопа Бронн</desc>
  <rect x="1" y="1" width="50" height="50" rx="8" fill="#232527"/>
  <path d="M16 37V15h12.8c5.3 0 8.6 2.4 8.6 6.3 0 2.1-1.1 3.8-3.1 4.8 2.6.9 4.1 2.8 4.1 5.4 0 3.6-3.1 5.5-8.9 5.5H16Zm6.1-13h5.7c2.1 0 3.3-.8 3.3-2.4 0-1.5-1.2-2.3-3.4-2.3h-5.6V24Zm0 8.7h6.7c2.1 0 3.3-.8 3.3-2.4 0-1.7-1.2-2.6-3.5-2.6h-6.5v5Z" fill="#F9F4EC"/>
  <path d="M63 37V15h18.3v4.5H68.9v4.1h6.2c5.6 0 8.9 2.4 8.9 6.6 0 4.3-3.3 6.8-9.1 6.8H63Zm5.9-4.4h5.5c2.4 0 3.6-.9 3.6-2.6 0-1.7-1.2-2.5-3.6-2.5h-5.5v5.1ZM88 37V15h9.7c6.1 0 9.8 3.2 9.8 8.4s-3.7 8.4-9.8 8.4h-3.8V37H88Zm5.9-9.8h3.4c2.7 0 4.2-1.4 4.2-3.8 0-2.5-1.5-3.8-4.2-3.8h-3.4v7.6ZM110.6 37V15h5.9v8.4h9.1V15h5.9v22h-5.9v-8.7h-9.1V37h-5.9ZM136.4 37V15h5.9v8.4h9.1V15h5.9v22h-5.9v-8.7h-9.1V37h-5.9Z" fill="#232527"/>
  <path d="M64 46h93" stroke="#B98245" stroke-width="2" stroke-linecap="round"/>
  <path d="M166 16h12m-6-6v12" stroke="#934B38" stroke-width="2.4" stroke-linecap="round"/>
</svg>
