<svg width="220" height="60" viewBox="0 0 220 60" fill="none" xmlns="http://www.w3.org/2000/svg" role="img" aria-labelledby="title desc">
  <title id="title">Бронн Барбершоп</title>
  <desc id="desc">Логотип вымышленного барбершопа Бронн</desc>
  <rect x="1" y="1" width="58" height="58" rx="10" fill="#232527"/>
  <path d="M16 42c9.6-2.2 17.8-8.8 22.3-18.1" stroke="#F9F4EC" stroke-width="4" stroke-linecap="round"/>
  <path d="M16 18c9.6 2.2 17.8 8.8 22.3 18.1" stroke="#F9F4EC" stroke-width="4" stroke-linecap="round"/>
  <circle cx="18" cy="18" r="3.8" fill="#B98245"/>
  <circle cx="18" cy="42" r="3.8" fill="#B98245"/>
  <path d="M38 15l6 6-15 15-6-6 15-15Z" fill="#934B38"/>
  <path d="M43 14l3 3" stroke="#F9F4EC" stroke-width="2" stroke-linecap="round"/>
  <text x="72" y="40" fill="#232527" font-family="Arial Black, Manrope, Arial, sans-serif" font-size="30" font-weight="900" letter-spacing="0">БРОНН</text>
  <path d="M73 49h92" stroke="#B98245" stroke-width="2.4" stroke-linecap="round"/>
  <path d="M162 17h24m-12-12v24" stroke="#934B38" stroke-width="3" stroke-linecap="round"/>
  <path d="M163 42h42" stroke="#232527" stroke-width="5" stroke-linecap="round"/>
  <path d="M166 51h30" stroke="#B98245" stroke-width="3" stroke-linecap="round"/>
</svg>
